<mxfile host="Electron" agent="Mozilla/5.0 (Macintosh; Intel Mac OS X 10_15_7) AppleWebKit/537.36 (KHTML, like Gecko) draw.io/26.0.16 Chrome/132.0.6834.196 Electron/34.2.0 Safari/537.36" version="26.0.16">
  <diagram id="C5RBs43oDa-KdzZeNtuy" name="Page-1">
    <mxGraphModel dx="4154" dy="1934" grid="1" gridSize="10" guides="1" tooltips="1" connect="1" arrows="1" fold="1" page="0" pageScale="1" pageWidth="827" pageHeight="1169" math="0" shadow="0">
      <root>
        <mxCell id="WIyWlLk6GJQsqaUBKTNV-0" />
        <mxCell id="WIyWlLk6GJQsqaUBKTNV-1" parent="WIyWlLk6GJQsqaUBKTNV-0" />
        <mxCell id="pu69xYrU9jhsGbABLWu0-31" value="" style="rounded=0;whiteSpace=wrap;html=1;strokeColor=none;fillColor=#D4E1F5;" parent="WIyWlLk6GJQsqaUBKTNV-1" vertex="1">
          <mxGeometry x="110" y="260" width="290" height="530" as="geometry" />
        </mxCell>
        <mxCell id="pu69xYrU9jhsGbABLWu0-32" value="Component Asset List Ingest" style="text;html=1;align=center;verticalAlign=middle;resizable=0;points=[];autosize=1;" parent="WIyWlLk6GJQsqaUBKTNV-1" vertex="1">
          <mxGeometry x="170" y="770" width="170" height="20" as="geometry" />
        </mxCell>
        <mxCell id="wN83Spoh5uE3AaR1W7T5-43" value="" style="rounded=0;whiteSpace=wrap;html=1;strokeColor=none;fillColor=#F9F7ED;" parent="WIyWlLk6GJQsqaUBKTNV-1" vertex="1">
          <mxGeometry x="1080" y="260" width="520" height="530" as="geometry" />
        </mxCell>
        <mxCell id="wN83Spoh5uE3AaR1W7T5-98" value="" style="rounded=0;whiteSpace=wrap;html=1;strokeColor=none;fillColor=#F9F7ED;" parent="WIyWlLk6GJQsqaUBKTNV-1" vertex="1">
          <mxGeometry x="-610" y="260" width="430" height="530" as="geometry" />
        </mxCell>
        <mxCell id="wN83Spoh5uE3AaR1W7T5-67" value="" style="rounded=0;whiteSpace=wrap;html=1;strokeColor=none;fillColor=#FFE6CC;" parent="WIyWlLk6GJQsqaUBKTNV-1" vertex="1">
          <mxGeometry x="480" y="260" width="520" height="530" as="geometry" />
        </mxCell>
        <mxCell id="wN83Spoh5uE3AaR1W7T5-15" value="" style="rounded=0;whiteSpace=wrap;html=1;strokeColor=none;fillColor=#D5E8D4;" parent="WIyWlLk6GJQsqaUBKTNV-1" vertex="1">
          <mxGeometry x="-180" y="260" width="290" height="530" as="geometry" />
        </mxCell>
        <mxCell id="AFasW3N3rb-dnXRpqXTf-4" value="RMA-necessary Asset Identification" style="text;html=1;align=center;verticalAlign=middle;resizable=0;points=[];autosize=1;" parent="WIyWlLk6GJQsqaUBKTNV-1" vertex="1">
          <mxGeometry x="-135" y="770" width="200" height="20" as="geometry" />
        </mxCell>
        <mxCell id="AFasW3N3rb-dnXRpqXTf-5" value="Non-RMA-necessary Asset Removal" style="text;html=1;align=center;verticalAlign=middle;resizable=0;points=[];autosize=1;" parent="WIyWlLk6GJQsqaUBKTNV-1" vertex="1">
          <mxGeometry x="635" y="770" width="210" height="20" as="geometry" />
        </mxCell>
        <mxCell id="wN83Spoh5uE3AaR1W7T5-45" value="Complete Cybersecurity Asset Removal" style="text;html=1;align=center;verticalAlign=middle;resizable=0;points=[];autosize=1;" parent="WIyWlLk6GJQsqaUBKTNV-1" vertex="1">
          <mxGeometry x="1225" y="770" width="230" height="20" as="geometry" />
        </mxCell>
        <mxCell id="AXCP_vRWOkf5SYs7HRFB-8" style="edgeStyle=orthogonalEdgeStyle;rounded=0;orthogonalLoop=1;jettySize=auto;html=1;exitX=0.5;exitY=1;exitDx=0;exitDy=0;" parent="WIyWlLk6GJQsqaUBKTNV-1" source="pu69xYrU9jhsGbABLWu0-33" target="AXCP_vRWOkf5SYs7HRFB-7" edge="1">
          <mxGeometry relative="1" as="geometry">
            <Array as="points" />
          </mxGeometry>
        </mxCell>
        <mxCell id="AXCP_vRWOkf5SYs7HRFB-17" style="edgeStyle=orthogonalEdgeStyle;rounded=0;orthogonalLoop=1;jettySize=auto;html=1;entryX=0;entryY=0.5;entryDx=0;entryDy=0;entryPerimeter=0;exitX=1;exitY=0.5;exitDx=0;exitDy=0;" parent="WIyWlLk6GJQsqaUBKTNV-1" source="pu69xYrU9jhsGbABLWu0-33" target="pu69xYrU9jhsGbABLWu0-0" edge="1">
          <mxGeometry relative="1" as="geometry">
            <mxPoint x="-646" y="380" as="sourcePoint" />
          </mxGeometry>
        </mxCell>
        <mxCell id="pu69xYrU9jhsGbABLWu0-4" style="edgeStyle=orthogonalEdgeStyle;rounded=0;orthogonalLoop=1;jettySize=auto;html=1;" parent="WIyWlLk6GJQsqaUBKTNV-1" source="wN83Spoh5uE3AaR1W7T5-111" target="pu69xYrU9jhsGbABLWu0-2" edge="1">
          <mxGeometry relative="1" as="geometry" />
        </mxCell>
        <mxCell id="wN83Spoh5uE3AaR1W7T5-111" value="Cybersecurity Asset Identification&amp;nbsp;" style="shape=process;whiteSpace=wrap;html=1;backgroundOutline=1;" parent="WIyWlLk6GJQsqaUBKTNV-1" vertex="1">
          <mxGeometry x="-450" y="509" width="120" height="60" as="geometry" />
        </mxCell>
        <mxCell id="wN83Spoh5uE3AaR1W7T5-112" value="Cybersecurity Asset Identification&amp;nbsp;" style="text;html=1;align=center;verticalAlign=middle;resizable=0;points=[];autosize=1;" parent="WIyWlLk6GJQsqaUBKTNV-1" vertex="1">
          <mxGeometry x="-495" y="770" width="200" height="20" as="geometry" />
        </mxCell>
        <mxCell id="AXCP_vRWOkf5SYs7HRFB-3" style="edgeStyle=orthogonalEdgeStyle;rounded=0;orthogonalLoop=1;jettySize=auto;html=1;entryX=0;entryY=0.5;entryDx=0;entryDy=0;strokeColor=#FF8000;" parent="WIyWlLk6GJQsqaUBKTNV-1" source="AXCP_vRWOkf5SYs7HRFB-2" target="wN83Spoh5uE3AaR1W7T5-111" edge="1">
          <mxGeometry relative="1" as="geometry" />
        </mxCell>
        <mxCell id="AXCP_vRWOkf5SYs7HRFB-2" value="Component Information" style="shape=note;whiteSpace=wrap;html=1;backgroundOutline=1;darkOpacity=0.05;size=26;" parent="WIyWlLk6GJQsqaUBKTNV-1" vertex="1">
          <mxGeometry x="-580" y="489" width="79.5" height="100" as="geometry" />
        </mxCell>
        <mxCell id="AXCP_vRWOkf5SYs7HRFB-7" value="Component Cybersecurity&lt;br&gt;Asset Report&amp;nbsp;" style="shape=document;whiteSpace=wrap;html=1;boundedLbl=1;" parent="WIyWlLk6GJQsqaUBKTNV-1" vertex="1">
          <mxGeometry x="140" y="654" width="120" height="80" as="geometry" />
        </mxCell>
        <mxCell id="IPxfnIjCZiYCJYjC7kOt-22" style="edgeStyle=orthogonalEdgeStyle;rounded=0;orthogonalLoop=1;jettySize=auto;html=1;entryX=0.25;entryY=0;entryDx=0;entryDy=0;strokeColor=#0000FF;" parent="WIyWlLk6GJQsqaUBKTNV-1" source="IPxfnIjCZiYCJYjC7kOt-4" target="wN83Spoh5uE3AaR1W7T5-111" edge="1">
          <mxGeometry relative="1" as="geometry">
            <Array as="points">
              <mxPoint x="-435" y="420" />
              <mxPoint x="-420" y="420" />
            </Array>
          </mxGeometry>
        </mxCell>
        <mxCell id="IPxfnIjCZiYCJYjC7kOt-4" value="&lt;span style=&quot;background-color: rgb(249 , 247 , 237)&quot;&gt;Vendor&lt;/span&gt;" style="shape=umlActor;verticalLabelPosition=bottom;verticalAlign=top;html=1;outlineConnect=0;fillColor=none;" parent="WIyWlLk6GJQsqaUBKTNV-1" vertex="1">
          <mxGeometry x="-450" y="290" width="30" height="60" as="geometry" />
        </mxCell>
        <mxCell id="IPxfnIjCZiYCJYjC7kOt-23" style="edgeStyle=orthogonalEdgeStyle;rounded=0;orthogonalLoop=1;jettySize=auto;html=1;strokeColor=#0000FF;entryX=0.75;entryY=0;entryDx=0;entryDy=0;" parent="WIyWlLk6GJQsqaUBKTNV-1" source="IPxfnIjCZiYCJYjC7kOt-8" target="wN83Spoh5uE3AaR1W7T5-111" edge="1">
          <mxGeometry relative="1" as="geometry">
            <Array as="points">
              <mxPoint x="-343" y="420" />
              <mxPoint x="-360" y="420" />
            </Array>
            <mxPoint x="-416" y="509" as="targetPoint" />
          </mxGeometry>
        </mxCell>
        <mxCell id="IPxfnIjCZiYCJYjC7kOt-8" value="&lt;span style=&quot;background-color: rgb(249 , 247 , 237)&quot;&gt;Security SME&lt;/span&gt;" style="shape=umlActor;verticalLabelPosition=bottom;verticalAlign=top;html=1;outlineConnect=0;fillColor=none;" parent="WIyWlLk6GJQsqaUBKTNV-1" vertex="1">
          <mxGeometry x="-358" y="290" width="30" height="60" as="geometry" />
        </mxCell>
        <mxCell id="pu69xYrU9jhsGbABLWu0-0" value="Cybersecurity Asset Database" style="shape=cylinder3;whiteSpace=wrap;html=1;boundedLbl=1;backgroundOutline=1;size=15;" parent="WIyWlLk6GJQsqaUBKTNV-1" vertex="1">
          <mxGeometry x="300" y="490.5" width="80" height="99" as="geometry" />
        </mxCell>
        <mxCell id="pu69xYrU9jhsGbABLWu0-1" value="RMA-necessary Asset Identification&amp;nbsp;" style="shape=process;whiteSpace=wrap;html=1;backgroundOutline=1;" parent="WIyWlLk6GJQsqaUBKTNV-1" vertex="1">
          <mxGeometry x="-150" y="509" width="120" height="60" as="geometry" />
        </mxCell>
        <mxCell id="pu69xYrU9jhsGbABLWu0-2" value="Component Cybersecurity Asset List" style="shape=note;whiteSpace=wrap;html=1;backgroundOutline=1;darkOpacity=0.05;size=19;" parent="WIyWlLk6GJQsqaUBKTNV-1" vertex="1">
          <mxGeometry x="-280" y="489.5" width="80" height="100" as="geometry" />
        </mxCell>
        <mxCell id="pu69xYrU9jhsGbABLWu0-3" style="edgeStyle=orthogonalEdgeStyle;rounded=0;orthogonalLoop=1;jettySize=auto;html=1;strokeColor=#FF8000;entryX=0;entryY=0.5;entryDx=0;entryDy=0;" parent="WIyWlLk6GJQsqaUBKTNV-1" source="pu69xYrU9jhsGbABLWu0-2" target="pu69xYrU9jhsGbABLWu0-1" edge="1">
          <mxGeometry relative="1" as="geometry">
            <mxPoint x="-90" y="538.5" as="targetPoint" />
          </mxGeometry>
        </mxCell>
        <mxCell id="pu69xYrU9jhsGbABLWu0-5" style="edgeStyle=orthogonalEdgeStyle;rounded=0;orthogonalLoop=1;jettySize=auto;html=1;strokeColor=#0000FF;entryX=0.25;entryY=0;entryDx=0;entryDy=0;" parent="WIyWlLk6GJQsqaUBKTNV-1" source="pu69xYrU9jhsGbABLWu0-6" target="pu69xYrU9jhsGbABLWu0-1" edge="1">
          <mxGeometry relative="1" as="geometry">
            <mxPoint x="-145" y="497.5" as="targetPoint" />
          </mxGeometry>
        </mxCell>
        <mxCell id="pu69xYrU9jhsGbABLWu0-6" value="&lt;span style=&quot;background-color: rgb(213 , 232 , 212)&quot;&gt;Vendor&lt;/span&gt;" style="shape=umlActor;verticalLabelPosition=bottom;verticalAlign=top;html=1;outlineConnect=0;fillColor=none;" parent="WIyWlLk6GJQsqaUBKTNV-1" vertex="1">
          <mxGeometry x="-150" y="290" width="30" height="60" as="geometry" />
        </mxCell>
        <mxCell id="pu69xYrU9jhsGbABLWu0-7" style="edgeStyle=orthogonalEdgeStyle;rounded=0;orthogonalLoop=1;jettySize=auto;html=1;strokeColor=#0000FF;entryX=0.75;entryY=0;entryDx=0;entryDy=0;" parent="WIyWlLk6GJQsqaUBKTNV-1" source="pu69xYrU9jhsGbABLWu0-8" target="pu69xYrU9jhsGbABLWu0-1" edge="1">
          <mxGeometry relative="1" as="geometry">
            <mxPoint x="-65" y="517.5" as="targetPoint" />
          </mxGeometry>
        </mxCell>
        <mxCell id="pu69xYrU9jhsGbABLWu0-8" value="&lt;span style=&quot;background-color: rgb(213 , 232 , 212)&quot;&gt;Security SME&lt;/span&gt;" style="shape=umlActor;verticalLabelPosition=bottom;verticalAlign=top;html=1;outlineConnect=0;fillColor=none;" parent="WIyWlLk6GJQsqaUBKTNV-1" vertex="1">
          <mxGeometry x="-56" y="290" width="30" height="60" as="geometry" />
        </mxCell>
        <mxCell id="pu69xYrU9jhsGbABLWu0-9" style="edgeStyle=orthogonalEdgeStyle;rounded=0;orthogonalLoop=1;jettySize=auto;html=1;exitX=0.5;exitY=1;exitDx=0;exitDy=0;" parent="WIyWlLk6GJQsqaUBKTNV-1" source="pu69xYrU9jhsGbABLWu0-10" target="pu69xYrU9jhsGbABLWu0-11" edge="1">
          <mxGeometry relative="1" as="geometry" />
        </mxCell>
        <mxCell id="pu69xYrU9jhsGbABLWu0-29" style="edgeStyle=orthogonalEdgeStyle;rounded=0;orthogonalLoop=1;jettySize=auto;html=1;entryX=0;entryY=0;entryDx=0;entryDy=30;entryPerimeter=0;strokeColor=#000000;" parent="WIyWlLk6GJQsqaUBKTNV-1" source="pu69xYrU9jhsGbABLWu0-10" target="pu69xYrU9jhsGbABLWu0-28" edge="1">
          <mxGeometry relative="1" as="geometry" />
        </mxCell>
        <mxCell id="pu69xYrU9jhsGbABLWu0-10" value="Remove non-RMA-necessary Assets" style="shape=process;whiteSpace=wrap;html=1;backgroundOutline=1;" parent="WIyWlLk6GJQsqaUBKTNV-1" vertex="1">
          <mxGeometry x="691" y="514" width="120" height="60" as="geometry" />
        </mxCell>
        <mxCell id="pu69xYrU9jhsGbABLWu0-11" value="non-RMA-necessary Asset Removal Report&amp;nbsp;" style="shape=document;whiteSpace=wrap;html=1;boundedLbl=1;" parent="WIyWlLk6GJQsqaUBKTNV-1" vertex="1">
          <mxGeometry x="691" y="654" width="120" height="80" as="geometry" />
        </mxCell>
        <mxCell id="pu69xYrU9jhsGbABLWu0-14" style="edgeStyle=orthogonalEdgeStyle;rounded=0;orthogonalLoop=1;jettySize=auto;html=1;entryX=0.5;entryY=0;entryDx=0;entryDy=0;strokeColor=#0000FF;" parent="WIyWlLk6GJQsqaUBKTNV-1" source="pu69xYrU9jhsGbABLWu0-13" target="pu69xYrU9jhsGbABLWu0-10" edge="1">
          <mxGeometry relative="1" as="geometry" />
        </mxCell>
        <mxCell id="pu69xYrU9jhsGbABLWu0-13" value="&lt;span style=&quot;background-color: rgb(255 , 230 , 204)&quot;&gt;Operations Engineer&lt;/span&gt;" style="shape=umlActor;verticalLabelPosition=bottom;verticalAlign=top;html=1;outlineConnect=0;fillColor=none;" parent="WIyWlLk6GJQsqaUBKTNV-1" vertex="1">
          <mxGeometry x="736" y="290" width="30" height="60" as="geometry" />
        </mxCell>
        <mxCell id="pu69xYrU9jhsGbABLWu0-15" style="edgeStyle=orthogonalEdgeStyle;rounded=0;orthogonalLoop=1;jettySize=auto;html=1;exitX=0.5;exitY=1;exitDx=0;exitDy=0;entryX=0.5;entryY=0;entryDx=0;entryDy=0;" parent="WIyWlLk6GJQsqaUBKTNV-1" source="pu69xYrU9jhsGbABLWu0-16" target="pu69xYrU9jhsGbABLWu0-17" edge="1">
          <mxGeometry relative="1" as="geometry" />
        </mxCell>
        <mxCell id="pu69xYrU9jhsGbABLWu0-30" style="edgeStyle=orthogonalEdgeStyle;rounded=0;orthogonalLoop=1;jettySize=auto;html=1;entryX=0;entryY=0;entryDx=0;entryDy=30;entryPerimeter=0;strokeColor=#000000;" parent="WIyWlLk6GJQsqaUBKTNV-1" source="pu69xYrU9jhsGbABLWu0-16" target="pu69xYrU9jhsGbABLWu0-27" edge="1">
          <mxGeometry relative="1" as="geometry" />
        </mxCell>
        <mxCell id="pu69xYrU9jhsGbABLWu0-16" value="Remove all Cybersecurity Assets" style="shape=process;whiteSpace=wrap;html=1;backgroundOutline=1;" parent="WIyWlLk6GJQsqaUBKTNV-1" vertex="1">
          <mxGeometry x="1290" y="515" width="120" height="60" as="geometry" />
        </mxCell>
        <mxCell id="pu69xYrU9jhsGbABLWu0-17" value="Cybersecurity Decommissioning Report&amp;nbsp;" style="shape=document;whiteSpace=wrap;html=1;boundedLbl=1;" parent="WIyWlLk6GJQsqaUBKTNV-1" vertex="1">
          <mxGeometry x="1290" y="654" width="120" height="80" as="geometry" />
        </mxCell>
        <mxCell id="pu69xYrU9jhsGbABLWu0-18" style="edgeStyle=orthogonalEdgeStyle;rounded=0;orthogonalLoop=1;jettySize=auto;html=1;strokeColor=#0000FF;" parent="WIyWlLk6GJQsqaUBKTNV-1" source="pu69xYrU9jhsGbABLWu0-19" target="pu69xYrU9jhsGbABLWu0-16" edge="1">
          <mxGeometry relative="1" as="geometry">
            <mxPoint x="1350" y="390" as="sourcePoint" />
          </mxGeometry>
        </mxCell>
        <mxCell id="pu69xYrU9jhsGbABLWu0-19" value="&lt;span style=&quot;background-color: rgb(249 , 247 , 237)&quot;&gt;Operations Engineer&lt;/span&gt;" style="shape=umlActor;verticalLabelPosition=bottom;verticalAlign=top;html=1;outlineConnect=0;fillColor=none;" parent="WIyWlLk6GJQsqaUBKTNV-1" vertex="1">
          <mxGeometry x="1335" y="287.5" width="30" height="60" as="geometry" />
        </mxCell>
        <mxCell id="pu69xYrU9jhsGbABLWu0-20" value="Cybersecurity Asset Database" style="shape=cylinder3;whiteSpace=wrap;html=1;boundedLbl=1;backgroundOutline=1;size=15;" parent="WIyWlLk6GJQsqaUBKTNV-1" vertex="1">
          <mxGeometry x="526" y="320" width="80" height="99" as="geometry" />
        </mxCell>
        <mxCell id="pu69xYrU9jhsGbABLWu0-21" value="Cybersecurity Asset Database" style="shape=cylinder3;whiteSpace=wrap;html=1;boundedLbl=1;backgroundOutline=1;size=15;" parent="WIyWlLk6GJQsqaUBKTNV-1" vertex="1">
          <mxGeometry x="1130" y="320" width="80" height="99" as="geometry" />
        </mxCell>
        <mxCell id="WcZLiKfYTSiQ0uEuk9bP-12" style="edgeStyle=orthogonalEdgeStyle;rounded=0;orthogonalLoop=1;jettySize=auto;html=1;strokeColor=#FF8000;exitX=1;exitY=0.5;exitDx=0;exitDy=0;exitPerimeter=0;entryX=0;entryY=0.25;entryDx=0;entryDy=0;" parent="WIyWlLk6GJQsqaUBKTNV-1" source="pu69xYrU9jhsGbABLWu0-20" target="pu69xYrU9jhsGbABLWu0-10" edge="1">
          <mxGeometry relative="1" as="geometry">
            <mxPoint x="-279" y="154" as="sourcePoint" />
            <mxPoint x="281" y="-121" as="targetPoint" />
            <Array as="points">
              <mxPoint x="660" y="370" />
              <mxPoint x="660" y="529" />
            </Array>
          </mxGeometry>
        </mxCell>
        <mxCell id="pu69xYrU9jhsGbABLWu0-22" style="edgeStyle=orthogonalEdgeStyle;rounded=0;orthogonalLoop=1;jettySize=auto;html=1;strokeColor=#FF8000;exitX=1;exitY=0.5;exitDx=0;exitDy=0;exitPerimeter=0;entryX=0;entryY=0.25;entryDx=0;entryDy=0;" parent="WIyWlLk6GJQsqaUBKTNV-1" source="pu69xYrU9jhsGbABLWu0-21" target="pu69xYrU9jhsGbABLWu0-16" edge="1">
          <mxGeometry relative="1" as="geometry">
            <mxPoint x="640" y="379.5" as="sourcePoint" />
            <mxPoint x="781" y="539" as="targetPoint" />
            <Array as="points">
              <mxPoint x="1260" y="370" />
              <mxPoint x="1260" y="530" />
            </Array>
          </mxGeometry>
        </mxCell>
        <mxCell id="pu69xYrU9jhsGbABLWu0-23" value="Component" style="shape=cube;whiteSpace=wrap;html=1;boundedLbl=1;backgroundOutline=1;darkOpacity=0.05;darkOpacity2=0.1;" parent="WIyWlLk6GJQsqaUBKTNV-1" vertex="1">
          <mxGeometry x="506" y="509.5" width="120" height="80" as="geometry" />
        </mxCell>
        <mxCell id="pu69xYrU9jhsGbABLWu0-24" style="edgeStyle=orthogonalEdgeStyle;rounded=0;orthogonalLoop=1;jettySize=auto;html=1;strokeColor=#FF8000;exitX=0;exitY=0;exitDx=120;exitDy=50;exitPerimeter=0;entryX=0;entryY=0.75;entryDx=0;entryDy=0;" parent="WIyWlLk6GJQsqaUBKTNV-1" source="pu69xYrU9jhsGbABLWu0-23" target="pu69xYrU9jhsGbABLWu0-10" edge="1">
          <mxGeometry relative="1" as="geometry">
            <mxPoint x="521" y="-121" as="sourcePoint" />
            <mxPoint x="646" y="-121" as="targetPoint" />
          </mxGeometry>
        </mxCell>
        <mxCell id="pu69xYrU9jhsGbABLWu0-25" value="Component" style="shape=cube;whiteSpace=wrap;html=1;boundedLbl=1;backgroundOutline=1;darkOpacity=0.05;darkOpacity2=0.1;" parent="WIyWlLk6GJQsqaUBKTNV-1" vertex="1">
          <mxGeometry x="1110" y="509.5" width="120" height="80" as="geometry" />
        </mxCell>
        <mxCell id="pu69xYrU9jhsGbABLWu0-26" style="edgeStyle=orthogonalEdgeStyle;rounded=0;orthogonalLoop=1;jettySize=auto;html=1;strokeColor=#FF8000;exitX=0;exitY=0;exitDx=120;exitDy=50;exitPerimeter=0;entryX=0;entryY=0.75;entryDx=0;entryDy=0;" parent="WIyWlLk6GJQsqaUBKTNV-1" source="pu69xYrU9jhsGbABLWu0-25" target="pu69xYrU9jhsGbABLWu0-16" edge="1">
          <mxGeometry relative="1" as="geometry">
            <mxPoint x="1125" y="-122" as="sourcePoint" />
            <mxPoint x="1365" y="558" as="targetPoint" />
          </mxGeometry>
        </mxCell>
        <mxCell id="pu69xYrU9jhsGbABLWu0-27" value="EoL-ready&lt;br&gt;Component" style="shape=cube;whiteSpace=wrap;html=1;boundedLbl=1;backgroundOutline=1;darkOpacity=0.05;darkOpacity2=0.1;" parent="WIyWlLk6GJQsqaUBKTNV-1" vertex="1">
          <mxGeometry x="1450" y="515" width="120" height="80" as="geometry" />
        </mxCell>
        <mxCell id="pu69xYrU9jhsGbABLWu0-28" value="RMA-ready&lt;br&gt;Component" style="shape=cube;whiteSpace=wrap;html=1;boundedLbl=1;backgroundOutline=1;darkOpacity=0.05;darkOpacity2=0.1;" parent="WIyWlLk6GJQsqaUBKTNV-1" vertex="1">
          <mxGeometry x="850" y="514" width="120" height="80" as="geometry" />
        </mxCell>
        <mxCell id="pu69xYrU9jhsGbABLWu0-33" value="Component Asset List&lt;br&gt;Ingest" style="shape=process;whiteSpace=wrap;html=1;backgroundOutline=1;" parent="WIyWlLk6GJQsqaUBKTNV-1" vertex="1">
          <mxGeometry x="140" y="509.5" width="120" height="60" as="geometry" />
        </mxCell>
        <mxCell id="pu69xYrU9jhsGbABLWu0-34" style="edgeStyle=orthogonalEdgeStyle;rounded=0;orthogonalLoop=1;jettySize=auto;html=1;strokeColor=#0000FF;entryX=0.5;entryY=0;entryDx=0;entryDy=0;" parent="WIyWlLk6GJQsqaUBKTNV-1" source="pu69xYrU9jhsGbABLWu0-35" target="pu69xYrU9jhsGbABLWu0-33" edge="1">
          <mxGeometry relative="1" as="geometry">
            <mxPoint x="225" y="517.5" as="targetPoint" />
          </mxGeometry>
        </mxCell>
        <mxCell id="pu69xYrU9jhsGbABLWu0-35" value="&lt;span style=&quot;background-color: rgb(212 , 225 , 245)&quot;&gt;Security SME&lt;/span&gt;" style="shape=umlActor;verticalLabelPosition=bottom;verticalAlign=top;html=1;outlineConnect=0;fillColor=none;" parent="WIyWlLk6GJQsqaUBKTNV-1" vertex="1">
          <mxGeometry x="185" y="290" width="30" height="60" as="geometry" />
        </mxCell>
        <mxCell id="pu69xYrU9jhsGbABLWu0-36" value="Annotated Component Cybersecurity Asset List" style="shape=note;whiteSpace=wrap;html=1;backgroundOutline=1;darkOpacity=0.05;size=19;" parent="WIyWlLk6GJQsqaUBKTNV-1" vertex="1">
          <mxGeometry x="10" y="489" width="80" height="100" as="geometry" />
        </mxCell>
        <mxCell id="pu69xYrU9jhsGbABLWu0-37" style="edgeStyle=orthogonalEdgeStyle;rounded=0;orthogonalLoop=1;jettySize=auto;html=1;strokeColor=#FF8000;entryX=0;entryY=0.5;entryDx=0;entryDy=0;" parent="WIyWlLk6GJQsqaUBKTNV-1" source="pu69xYrU9jhsGbABLWu0-36" target="pu69xYrU9jhsGbABLWu0-33" edge="1">
          <mxGeometry relative="1" as="geometry">
            <mxPoint x="160" y="538" as="targetPoint" />
          </mxGeometry>
        </mxCell>
        <mxCell id="pu69xYrU9jhsGbABLWu0-38" style="edgeStyle=orthogonalEdgeStyle;rounded=0;orthogonalLoop=1;jettySize=auto;html=1;exitX=1;exitY=0.5;exitDx=0;exitDy=0;" parent="WIyWlLk6GJQsqaUBKTNV-1" source="pu69xYrU9jhsGbABLWu0-1" target="pu69xYrU9jhsGbABLWu0-36" edge="1">
          <mxGeometry relative="1" as="geometry">
            <mxPoint x="-20" y="538" as="sourcePoint" />
          </mxGeometry>
        </mxCell>
      </root>
    </mxGraphModel>
  </diagram>
</mxfile>
